<svg width="1003" height="1052" viewBox="0 0 1003 1052" fill="none" xmlns="http://www.w3.org/2000/svg">
    <path d="M155.293 521.284L109.685 547.484V596.975L155.293 623.175L201.872 596.975V547.484L155.293 521.284Z" stroke="#292928" stroke-opacity="0.6" stroke-width="2"/>
    <path d="M209.636 606.678L164.027 632.879V682.369L209.636 708.57L256.215 682.369V632.879L209.636 606.678Z" stroke="#292928" stroke-opacity="0.6" stroke-width="2"/>
    <path d="M209.636 435.888L164.027 462.089V511.579L209.636 537.78L256.215 511.579V462.089L209.636 435.888Z" stroke="#292928" stroke-opacity="0.6" stroke-width="2"/>
    <path d="M263.978 521.284L218.369 547.484V596.975L263.978 623.175L310.557 596.975V547.484L263.978 521.284Z" stroke="#292928" stroke-opacity="0.6" stroke-width="2"/>
    <path d="M310.557 435.888L264.948 462.089V511.579L310.557 537.78L357.136 511.579V462.089L310.557 435.888Z" stroke="#292928" stroke-opacity="0.6" stroke-width="2"/>
    <path d="M364.899 521.284L319.29 547.484V596.975L364.899 623.175L411.478 596.975V547.484L364.899 521.284Z" stroke="#292928" stroke-opacity="0.6" stroke-width="2"/>
    <path d="M364.899 350.493L319.29 376.694V426.185L364.899 452.385L411.478 426.185V376.694L364.899 350.493Z" stroke="#292928" stroke-opacity="0.6" stroke-width="2"/>
    <path d="M419.241 435.888L373.633 462.089V511.579L419.241 537.78L465.821 511.579V462.089L419.241 435.888Z" stroke="#292928" stroke-opacity="0.6" stroke-width="2"/>
    <path d="M46.6087 350.493L1 376.694V426.185L46.6087 452.385L93.1878 426.185V376.694L46.6087 350.493Z" stroke="#292928" stroke-opacity="0.6" stroke-width="2"/>
    <path d="M100.951 435.888L55.3423 462.089V511.579L100.951 537.78L147.53 511.579V462.089L100.951 435.888Z" stroke="#292928" stroke-opacity="0.6" stroke-width="2"/>
    <path d="M100.951 265.098L55.3423 291.299V340.79L100.951 366.99L147.53 340.79V291.299L100.951 265.098Z" stroke="#292928" stroke-opacity="0.6" stroke-width="2"/>
    <path d="M155.293 350.493L109.685 376.694V426.185L155.293 452.385L201.872 426.185V376.694L155.293 350.493Z" stroke="#292928" stroke-opacity="0.6" stroke-width="2"/>
    <path d="M201.872 265.098L156.264 291.299V340.79L201.872 366.99L248.451 340.79V291.299L201.872 265.098Z" stroke="#292928" stroke-opacity="0.6" stroke-width="2"/>
    <path d="M256.215 350.493L210.606 376.694V426.185L256.215 452.385L302.794 426.185V376.694L256.215 350.493Z" stroke="#292928" stroke-opacity="0.6" stroke-width="2"/>
    <path d="M256.215 179.703L210.606 205.904V255.394L256.215 281.595L302.794 255.394V205.904L256.215 179.703Z" stroke="#292928" stroke-opacity="0.6" stroke-width="2"/>
    <path d="M310.557 265.098L264.948 291.299V340.79L310.557 366.99L357.136 340.79V291.299L310.557 265.098Z" stroke="#292928" stroke-opacity="0.6" stroke-width="2"/>
    <path d="M473.584 342.73L427.975 368.931V418.421L473.584 444.622L520.163 418.421V368.931L473.584 342.73Z" stroke="#292928" stroke-opacity="0.6" stroke-width="2"/>
    <path d="M527.926 428.125L482.317 454.326V503.816L527.926 530.017L574.505 503.816V454.326L527.926 428.125Z" stroke="#292928" stroke-opacity="0.6" stroke-width="2"/>
    <path d="M527.926 257.335L482.317 283.536V333.026L527.926 359.227L574.505 333.026V283.536L527.926 257.335Z" stroke="#292928" stroke-opacity="0.6" stroke-width="2"/>
    <path d="M582.268 342.73L536.66 368.931V418.421L582.268 444.622L628.847 418.421V368.931L582.268 342.73Z" stroke="#292928" stroke-opacity="0.6" stroke-width="2"/>
    <path d="M628.847 257.335L583.239 283.536V333.026L628.847 359.227L675.426 333.026V283.536L628.847 257.335Z" stroke="#292928" stroke-opacity="0.6" stroke-width="2"/>
    <path d="M683.19 342.73L637.581 368.931V418.421L683.19 444.622L729.769 418.421V368.931L683.19 342.73Z" stroke="#292928" stroke-opacity="0.6" stroke-width="2"/>
    <path d="M683.19 171.94L637.581 198.141V247.631L683.19 273.832L729.769 247.631V198.141L683.19 171.94Z" stroke="#292928" stroke-opacity="0.6" stroke-width="2"/>
    <path d="M737.532 257.335L691.923 283.536V333.026L737.532 359.227L784.111 333.026V283.536L737.532 257.335Z" stroke="#292928" stroke-opacity="0.6" stroke-width="2"/>
    <path d="M364.899 171.94L319.29 198.141V247.631L364.899 273.832L411.478 247.631V198.141L364.899 171.94Z" stroke="#292928" stroke-opacity="0.6" stroke-width="2"/>
    <path d="M419.241 257.335L373.633 283.536V333.026L419.241 359.227L465.821 333.026V283.536L419.241 257.335Z" stroke="#292928" stroke-opacity="0.6" stroke-width="2"/>
    <path d="M419.241 86.5453L373.633 112.746V162.236L419.241 188.437L465.821 162.236V112.746L419.241 86.5453Z" stroke="#292928" stroke-opacity="0.6" stroke-width="2"/>
    <path d="M473.584 171.94L427.975 198.141V247.631L473.584 273.832L520.163 247.631V198.141L473.584 171.94Z" stroke="#292928" stroke-opacity="0.6" stroke-width="2"/>
    <path d="M520.163 86.5453L474.554 112.746V162.236L520.163 188.437L566.742 162.236V112.746L520.163 86.5453Z" stroke="#292928" stroke-opacity="0.6" stroke-width="2"/>
    <path d="M574.505 171.94L528.896 198.141V247.631L574.505 273.832L621.084 247.631V198.141L574.505 171.94Z" stroke="#292928" stroke-opacity="0.6" stroke-width="2"/>
    <path d="M574.505 1.15027L528.896 27.351V76.8413L574.505 103.042L621.084 76.8413V27.351L574.505 1.15027Z" stroke="#292928" stroke-opacity="0.6" stroke-width="2"/>
    <path d="M628.847 86.5453L583.239 112.746V162.236L628.847 188.437L675.426 162.236V112.746L628.847 86.5453Z" stroke="#292928" stroke-opacity="0.6" stroke-width="2"/>
    <path d="M372.662 862.863L327.054 889.064V938.554L372.662 964.755L419.241 938.554V889.064L372.662 862.863Z" stroke="#292928" stroke-opacity="0.6" stroke-width="2"/>
    <path d="M427.005 948.258L381.396 974.459V1023.95L427.005 1050.15L473.584 1023.95V974.459L427.005 948.258Z" stroke="#292928" stroke-opacity="0.6" stroke-width="2"/>
    <path d="M427.005 777.469L381.396 803.669V853.16L427.005 879.36L473.584 853.16V803.669L427.005 777.469Z" stroke="#292928" stroke-opacity="0.6" stroke-width="2"/>
    <path d="M481.347 862.863L435.738 889.064V938.554L481.347 964.755L527.926 938.554V889.064L481.347 862.863Z" stroke="#292928" stroke-opacity="0.6" stroke-width="2"/>
    <path d="M527.926 777.469L482.317 803.669V853.16L527.926 879.36L574.505 853.16V803.669L527.926 777.469Z" stroke="#292928" stroke-opacity="0.6" stroke-width="2"/>
    <path d="M582.268 862.863L536.66 889.064V938.554L582.268 964.755L628.847 938.554V889.064L582.268 862.863Z" stroke="#292928" stroke-opacity="0.6" stroke-width="2"/>
    <path d="M582.268 692.073L536.66 718.274V767.765L582.268 793.965L628.847 767.765V718.274L582.268 692.073Z" stroke="#292928" stroke-opacity="0.6" stroke-width="2"/>
    <path d="M636.611 777.469L591.002 803.669V853.16L636.611 879.36L683.19 853.16V803.669L636.611 777.469Z" stroke="#292928" stroke-opacity="0.6" stroke-width="2"/>
    <path d="M263.978 692.073L218.369 718.274V767.765L263.978 793.965L310.557 767.765V718.274L263.978 692.073Z" stroke="#292928" stroke-opacity="0.6" stroke-width="2"/>
    <path d="M318.32 777.469L272.711 803.669V853.16L318.32 879.36L364.899 853.16V803.669L318.32 777.469Z" stroke="#292928" stroke-opacity="0.6" stroke-width="2"/>
    <path d="M318.32 606.678L272.711 632.879V682.369L318.32 708.57L364.899 682.369V632.879L318.32 606.678Z" stroke="#292928" stroke-opacity="0.6" stroke-width="2"/>
    <path d="M372.662 692.073L327.054 718.274V767.765L372.662 793.965L419.241 767.765V718.274L372.662 692.073Z" stroke="#292928" stroke-opacity="0.6" stroke-width="2"/>
    <path d="M419.241 606.678L373.633 632.879V682.369L419.241 708.57L465.821 682.369V632.879L419.241 606.678Z" stroke="#292928" stroke-opacity="0.6" stroke-width="2"/>
    <path d="M473.584 692.073L427.975 718.274V767.765L473.584 793.965L520.163 767.765V718.274L473.584 692.073Z" stroke="#292928" stroke-opacity="0.6" stroke-width="2"/>
    <path d="M473.584 521.284L427.975 547.484V596.975L473.584 623.175L520.163 596.975V547.484L473.584 521.284Z" stroke="#292928" stroke-opacity="0.6" stroke-width="2"/>
    <path d="M527.926 606.678L482.317 632.879V682.369L527.926 708.57L574.505 682.369V632.879L527.926 606.678Z" stroke="#292928" stroke-opacity="0.6" stroke-width="2"/>
    <path d="M690.953 684.31L645.344 710.511V760.001L690.953 786.202L737.532 760.001V710.511L690.953 684.31Z" stroke="#292928" stroke-opacity="0.6" stroke-width="2"/>
    <path d="M745.295 769.705L699.686 795.906V845.396L745.295 871.597L791.874 845.396V795.906L745.295 769.705Z" stroke="#292928" stroke-opacity="0.6" stroke-width="2"/>
    <path d="M745.295 598.915L699.686 625.116V674.606L745.295 700.807L791.874 674.606V625.116L745.295 598.915Z" stroke="#292928" stroke-opacity="0.6" stroke-width="2"/>
    <path d="M799.637 684.31L754.029 710.511V760.001L799.637 786.202L846.216 760.001V710.511L799.637 684.31Z" stroke="#292928" stroke-opacity="0.6" stroke-width="2"/>
    <path d="M846.216 598.915L800.608 625.116V674.606L846.216 700.807L892.796 674.606V625.116L846.216 598.915Z" stroke="#292928" stroke-opacity="0.6" stroke-width="2"/>
    <path d="M900.559 684.31L854.95 710.511V760.001L900.559 786.202L947.138 760.001V710.511L900.559 684.31Z" stroke="#292928" stroke-opacity="0.6" stroke-width="2"/>
    <path d="M900.559 513.52L854.95 539.721V589.211L900.559 615.412L947.138 589.211V539.721L900.559 513.52Z" stroke="#292928" stroke-opacity="0.6" stroke-width="2"/>
    <path d="M954.901 598.915L909.292 625.116V674.606L954.901 700.807L1001.48 674.606V625.116L954.901 598.915Z" stroke="#292928" stroke-opacity="0.6" stroke-width="2"/>
    <path d="M582.268 513.52L536.66 539.721V589.211L582.268 615.412L628.847 589.211V539.721L582.268 513.52Z" stroke="#292928" stroke-opacity="0.6" stroke-width="2"/>
    <path d="M636.611 598.915L591.002 625.116V674.606L636.611 700.807L683.19 674.606V625.116L636.611 598.915Z" stroke="#292928" stroke-opacity="0.6" stroke-width="2"/>
    <path d="M636.611 428.125L591.002 454.326V503.816L636.611 530.017L683.19 503.816V454.326L636.611 428.125Z" stroke="#292928" stroke-opacity="0.6" stroke-width="2"/>
    <path d="M690.953 513.52L645.344 539.721V589.211L690.953 615.412L737.532 589.211V539.721L690.953 513.52Z" stroke="#292928" stroke-opacity="0.6" stroke-width="2"/>
    <path d="M737.532 428.125L691.923 454.326V503.816L737.532 530.017L784.111 503.816V454.326L737.532 428.125Z" stroke="#292928" stroke-opacity="0.6" stroke-width="2"/>
    <path d="M791.874 513.52L746.265 539.721V589.211L791.874 615.412L838.453 589.211V539.721L791.874 513.52Z" stroke="#292928" stroke-opacity="0.6" stroke-width="2"/>
    <path d="M791.874 342.73L746.265 368.931V418.421L791.874 444.622L838.453 418.421V368.931L791.874 342.73Z" stroke="#292928" stroke-opacity="0.6" stroke-width="2"/>
    <path d="M846.216 428.125L800.608 454.326V503.816L846.216 530.017L892.796 503.816V454.326L846.216 428.125Z" stroke="#292928" stroke-opacity="0.6" stroke-width="2"/>
</svg>